<?xml version="1.0" encoding="UTF-8" standalone="no"?>
<!-- Created with Inkscape (http://www.inkscape.org/) -->
<svg id="svg3406" xmlns:rdf="http://www.w3.org/1999/02/22-rdf-syntax-ns#" xmlns="http://www.w3.org/2000/svg" height="80" viewBox="0 0 340 80" width="340" version="1.1" xmlns:cc="http://creativecommons.org/ns#" xmlns:dc="http://purl.org/dc/elements/1.1/">
 <metadata id="metadata3412">
  <rdf:RDF>
   <cc:Work rdf:about="">
    <dc:format>image/svg+xml</dc:format>
    <dc:type rdf:resource="http://purl.org/dc/dcmitype/StillImage"/>
    <dc:title/>
   </cc:Work>
  </rdf:RDF>
 </metadata>
 <path id="path3418" d="m32.27 75.328c-11.637-2.297-20.653-8.917-25.47-18.701-3.0329-6.16-3.3-7.474-3.3-16.224 0-8.2287 0.36244-10.294 2.6702-15.218 3.4214-7.2991 9.8732-13.724 17.392-17.321 7.1982-3.4429 19.952-4.496 29.614-2.4454 5.6885 1.2072 6.1822 1.5421 7.923 5.375 1.021 2.2482 1.8663 4.875 1.8784 5.8375 0.02627 2.0936-2.2716 2.3062-3.8871 0.3596-0.63466-0.76472-3.5023-2.4035-6.3724-3.6417-9.7081-4.1881-23.486-2.2924-30.375 4.1793-4.0965 3.8484-6.7313 11.646-6.7079 19.853 0.05501 19.282 10.486 31.308 27.275 31.446 3.6244 0.02983 8.1011-0.58309 9.9483-1.362l3.359-1.416-0.358-9.583-0.359-9.584 5.393-0.307c2.966-0.16897 5.766 0.06596 6.2221 0.52205 0.4561 0.4561 0.54754 5.4535 0.20322 11.105l-0.62604 10.276-4.4486 2.607c-7.956 4.663-19.538 6.303-29.973 4.243zm56.784-1.6737c-2.561-0.904-6.459-3.582-9.192-6.314-13.728-13.729-8.177-37.996 10.173-44.47 10.392-3.6664 23.609-0.80373 30.658 6.64 10.093 10.658 9.7109 28.593-0.82096 38.566-7.4079 7.0146-20.196 9.3294-30.819 5.5788zm19.755-6.2966c4.5892-2.798 7.1426-8.8689 7.1699-17.047 0.0479-14.327-6.1271-22.932-16.451-22.924-10.342 0.0077-15.048 6.1315-14.997 19.512 0.03714 9.6085 2.945 16.64 8.3669 20.233 4.3959 2.9127 11.343 3.0119 15.91 0.22705zm27.19 7.384c-1.29-0.352-1.48-4.077-1.33-26.634l0.1653-26.225h14.835c13.977 0 15.163 0.15398 20.515 2.6629 9.4207 4.4162 13.407 11.627 13.203 23.88-0.12431 7.4606-1.9176 12.435-6.1864 17.16-4.2235 4.6749-8.7756 7.1431-15.997 8.6737-4.9823 1.056-21.909 1.3798-25.201 0.48208zm27.169-8.0253c6.545-3.8225 9.8105-13.898 7.8516-24.227-1.91-10.05-8.28-15.043-19.27-15.085l-5.75-0.02196v21.134 21.134l6.9191-0.49506c4.2688-0.30543 8.1947-1.2401 10.249-2.4401zm39.83 7.942l-12.5-0.3318v-34.512-34.512l6.4578 0.28999 6.4578 0.28999-0.45777 5.5c-0.25177 3.025-0.45777 16.975-0.45777 31v25.5l6-0.29079c3.3-0.15994 8.6469-0.75301 11.882-1.3179 3.2351-0.56494 6.2303-0.65908 6.6559-0.20921s0.47281 2.6179 0.10492 4.8179l-0.66889 4-5.487 0.05379c-3.01 0.029-11.1-0.096-17.98-0.278zm115.87 0.000848-11.625-0.33793 0.47123-19.719c0.25918-10.846 0.0402-22.345-0.48672-25.554-0.78699-4.7931-0.70029-5.9333 0.48582-6.3884 0.79407-0.30472 7.8194-0.60424 15.612-0.6656l14.18-0.112-0.2102 2.9102c-0.30048 4.1601-1.1336 4.5566-7.2185 3.4349-2.9858-0.55038-6.9418-0.71683-8.7911-0.36989l-3.3624 0.6308 0.29111 7.697 0.29111 7.697 7.6281-0.35171c4.1955-0.19344 7.8544 0.03156 8.1309 0.5 0.27655 0.46844 0.28701 2.2686 0.0233 4.0004l-0.47956 3.1487-7.9014-0.54157-7.9-0.541v9.2911 9.2911l7.75-0.63586c4.2625-0.34972 8.7913-0.92644 10.064-1.2816 2.1949-0.61249 2.2979-0.42012 2 3.7376-0.36325 5.0707 1.1272 4.7433-18.939 4.16zm-86.067-0.80214c-0.28903-0.28903-0.0954-2.8765 0.43035-5.75 0.88788-4.8529 0.63181-40.365-0.31528-43.724-0.3392-1.2031 0.8635-1.5574 6.0771-1.79l6.5-0.28999v26.04 26.04h-6.0833c-3.3458 0-6.3198-0.23648-6.6088-0.52551zm22.7-25.475v-26h6.255 6.255l-0.66794 10.25c-0.56992 8.7457-0.46059 10.09 0.74498 9.1602 7.2004-5.5536 20.577-16.918 21.213-18.022 0.94-1.629 13.7-2.004 13.7-0.401 0 0.54262-1.4625 1.6251-3.25 2.4056-1.7875 0.78045-7.8083 5.1962-13.38 9.8128l-10.13 8.3938 11.424 12.146c6.2829 6.6804 12.982 13.109 14.886 14.286 1.9042 1.1769 3.2079 2.5513 2.897 3.0544-0.31088 0.50302-3.8012 0.87058-7.7562 0.8168l-7.19-0.098-11-11.847c-6.05-6.5161-11.406-11.872-11.903-11.902-0.52121-0.03157-0.6477 5.0163-0.29931 11.945l0.60336 12h-6.2007-6.2007v-26z" fill="#fff"/>
</svg>
